<?xml version="1.0" encoding="UTF-8"?>
<!-- Generator: visioncortex VTracer 0.6.4 -->
<svg version="1.1" xmlns="http://www.w3.org/2000/svg" width="96" height="96">
<path d="M0 0 C31.68 0 63.36 0 96 0 C96 31.68 96 63.36 96 96 C64.32 96 32.64 96 0 96 C0 64.32 0 32.64 0 0 Z " fill="#F3F3F3" transform="translate(0,0)"/>
<path d="M0 0 C0 0.99 0 1.98 0 3 C-0.66 3 -1.32 3 -2 3 C-2 4.98 -2 6.96 -2 9 C-0.02 9 1.96 9 4 9 C4 9.66 4 10.32 4 11 C6.97 11 9.94 11 13 11 C13 11.66 13 12.32 13 13 C12.34 13 11.68 13 11 13 C11 14.32 11 15.64 11 17 C12.32 17 13.64 17 15 17 C15 17.66 15 18.32 15 19 C15.66 19 16.32 19 17 19 C17 20.32 17 21.64 17 23 C17.66 23 18.32 23 19 23 C19 23.99 19 24.98 19 26 C19.66 26 20.32 26 21 26 C21 31.28 21 36.56 21 42 C20.34 42 19.68 42 19 42 C19 43.32 19 44.64 19 46 C18.34 46 17.68 46 17 46 C17 47.65 17 49.3 17 51 C16.34 51 15.68 51 15 51 C15 52.32 15 53.64 15 55 C14.34 55 13.68 55 13 55 C13 55.66 13 56.32 13 57 C12.34 57 11.68 57 11 57 C11 58.32 11 59.64 11 61 C10.34 61 9.68 61 9 61 C8.67 62.32 8.34 63.64 8 65 C7.34 65 6.68 65 6 65 C6 65.66 6 66.32 6 67 C4.68 67 3.36 67 2 67 C2 67.66 2 68.32 2 69 C1.34 69 0.68 69 0 69 C0 69.66 0 70.32 0 71 C-3.96 71 -7.92 71 -12 71 C-12 70.34 -12 69.68 -12 69 C-12.66 69 -13.32 69 -14 69 C-14 68.34 -14 67.68 -14 67 C-15.32 67 -16.64 67 -18 67 C-18.33 65.68 -18.66 64.36 -19 63 C-19.66 63 -20.32 63 -21 63 C-21 62.34 -21 61.68 -21 61 C-21.66 61 -22.32 61 -23 61 C-23 59.68 -23 58.36 -23 57 C-23.66 57 -24.32 57 -25 57 C-25 56.34 -25 55.68 -25 55 C-25.66 55 -26.32 55 -27 55 C-27 53.68 -27 52.36 -27 51 C-27.66 51 -28.32 51 -29 51 C-29 49.35 -29 47.7 -29 46 C-29.66 46 -30.32 46 -31 46 C-31 44.68 -31 43.36 -31 42 C-31.66 42 -32.32 42 -33 42 C-33 36.72 -33 31.44 -33 26 C-32.34 26 -31.68 26 -31 26 C-31 25.01 -31 24.02 -31 23 C-30.34 23 -29.68 23 -29 23 C-29 22.34 -29 21.68 -29 21 C-28.34 21 -27.68 21 -27 21 C-27 20.34 -27 19.68 -27 19 C-26.34 19 -25.68 19 -25 19 C-25 18.34 -25 17.68 -25 17 C-24.34 17 -23.68 17 -23 17 C-23 16.34 -23 15.68 -23 15 C-21.68 15 -20.36 15 -19 15 C-19 14.34 -19 13.68 -19 13 C-19.66 13 -20.32 13 -21 13 C-21 12.34 -21 11.68 -21 11 C-21.66 11 -22.32 11 -23 11 C-23 10.34 -23 9.68 -23 9 C-20.69 9 -18.38 9 -16 9 C-16 8.34 -16 7.68 -16 7 C-14.02 7 -12.04 7 -10 7 C-10 7.66 -10 8.32 -10 9 C-9.34 9 -8.68 9 -8 9 C-8 7.02 -8 5.04 -8 3 C-7.34 3 -6.68 3 -6 3 C-6 2.34 -6 1.68 -6 1 C-4 0 -4 0 0 0 Z " fill="#8F414F" transform="translate(54,12)"/>
<path d="M0 0 C0 0.99 0 1.98 0 3 C-0.66 3 -1.32 3 -2 3 C-2 4.98 -2 6.96 -2 9 C-0.02 9 1.96 9 4 9 C4 9.66 4 10.32 4 11 C6.97 11 9.94 11 13 11 C13 11.66 13 12.32 13 13 C12.34 13 11.68 13 11 13 C11 14.32 11 15.64 11 17 C12.32 17 13.64 17 15 17 C15 17.66 15 18.32 15 19 C15.66 19 16.32 19 17 19 C17 20.32 17 21.64 17 23 C17.66 23 18.32 23 19 23 C19.03 25.08 19.05 27.17 19.06 29.25 C19.07 30.41 19.09 31.57 19.1 32.77 C19.02 35.43 18.78 37.48 18 40 C17.72 41.11 17.72 41.11 17.44 42.25 C17.29 42.83 17.15 43.41 17 44 C14.03 43.51 14.03 43.51 11 43 C11 44.65 11 46.3 11 48 C8.69 48 6.38 48 4 48 C4 46.35 4 44.7 4 43 C6.47 42.51 6.47 42.51 9 42 C9 41.34 9 40.68 9 40 C9.66 40 10.32 40 11 40 C11 38.02 11 36.04 11 34 C10.34 34 9.68 34 9 34 C9 33.34 9 32.68 9 32 C7.35 32 5.7 32 4 32 C4 32.66 4 33.32 4 34 C3.34 34 2.68 34 2 34 C1.92 34.6 1.84 35.2 1.75 35.81 C0.79 38.61 -0.64 39.3 -3 41 C-3.33 41.99 -3.66 42.98 -4 44 C-5.98 44 -7.96 44 -10 44 C-10.66 42.68 -11.32 41.36 -12 40 C-12.35 41.13 -12.7 42.27 -13.06 43.44 C-13.88 45.38 -13.88 45.38 -15 47 C-18.5 47.94 -21.41 48 -25 48 C-25 46.68 -25 45.36 -25 44 C-21.56 41.71 -20.01 41.82 -16 42 C-16 41.34 -16 40.68 -16 40 C-15.34 40 -14.68 40 -14 40 C-14 38.02 -14 36.04 -14 34 C-14.66 34 -15.32 34 -16 34 C-16 33.34 -16 32.68 -16 32 C-17.32 32 -18.64 32 -20 32 C-19.67 31.01 -19.34 30.02 -19 29 C-18.01 29 -17.02 29 -16 29 C-15.01 26.69 -14.02 24.38 -13 22 C-12.01 22.33 -11.02 22.66 -10 23 C-10 20.36 -10 17.72 -10 15 C-10.66 15 -11.32 15 -12 15 C-12 15.66 -12 16.32 -12 17 C-12.66 17 -13.32 17 -14 17 C-14 17.66 -14 18.32 -14 19 C-15.65 19 -17.3 19 -19 19 C-19 17.02 -19 15.04 -19 13 C-19.66 13 -20.32 13 -21 13 C-21 12.34 -21 11.68 -21 11 C-21.66 11 -22.32 11 -23 11 C-23 10.34 -23 9.68 -23 9 C-20.69 9 -18.38 9 -16 9 C-16 8.34 -16 7.68 -16 7 C-14.02 7 -12.04 7 -10 7 C-10 7.66 -10 8.32 -10 9 C-9.34 9 -8.68 9 -8 9 C-8 7.02 -8 5.04 -8 3 C-7.34 3 -6.68 3 -6 3 C-6 2.34 -6 1.68 -6 1 C-4 0 -4 0 0 0 Z M-10 36 C-10.33 36.99 -10.66 37.98 -11 39 C-10.34 39 -9.68 39 -9 39 C-9.33 38.01 -9.66 37.02 -10 36 Z " fill="#924251" transform="translate(54,12)"/>
<path d="M0 0 C1.32 0 2.64 0 4 0 C4 1.32 4 2.64 4 4 C5.65 4 7.3 4 9 4 C9 3.34 9 2.68 9 2 C9.66 2 10.32 2 11 2 C11 1.34 11 0.68 11 0 C11.66 0 12.32 0 13 0 C13.33 2.97 13.66 5.94 14 9 C13.01 9 12.02 9 11 9 C8.22 10.39 8.02 12.16 7 15 C6.01 15 5.02 15 4 15 C3.67 15.66 3.34 16.32 3 17 C4.32 17 5.64 17 7 17 C7 17.66 7 18.32 7 19 C7.66 19 8.32 19 9 19 C9 20.98 9 22.96 9 25 C8.34 25 7.68 25 7 25 C7 25.66 7 26.32 7 27 C6.26 27.14 5.52 27.29 4.75 27.44 C2.48 27.9 0.24 28.42 -2 29 C-2 30.32 -2 31.64 -2 33 C-1.34 33 -0.68 33 0 33 C0.33 33.99 0.66 34.98 1 36 C0.01 36.49 0.01 36.49 -1 37 C-0.67 37.33 -0.34 37.66 0 38 C0 39.32 0 40.64 0 42 C-0.66 42 -1.32 42 -2 42 C-2 41.34 -2 40.68 -2 40 C-2.66 40 -3.32 40 -4 40 C-4 38.68 -4 37.36 -4 36 C-4.66 36 -5.32 36 -6 36 C-6 34.35 -6 32.7 -6 31 C-6.66 31 -7.32 31 -8 31 C-8 29.68 -8 28.36 -8 27 C-8.66 27 -9.32 27 -10 27 C-10 21.72 -10 16.44 -10 11 C-9.34 11 -8.68 11 -8 11 C-8 10.01 -8 9.02 -8 8 C-7.34 8 -6.68 8 -6 8 C-6 7.34 -6 6.68 -6 6 C-5.34 6 -4.68 6 -4 6 C-4 5.34 -4 4.68 -4 4 C-3.34 4 -2.68 4 -2 4 C-2 3.34 -2 2.68 -2 2 C-1.34 2 -0.68 2 0 2 C0 1.34 0 0.68 0 0 Z " fill="#833C49" transform="translate(31,27)"/>
<path d="M0 0 C0.66 0 1.32 0 2 0 C2 0.66 2 1.32 2 2 C2.66 2.33 3.32 2.66 4 3 C4 6 4 9 4 12 C4.66 12.33 5.32 12.66 6 13 C6 14.98 6 16.96 6 19 C5.34 19 4.68 19 4 19 C3.92 19.6 3.84 20.2 3.75 20.81 C2.79 23.61 1.36 24.3 -1 26 C-1.33 26.99 -1.66 27.98 -2 29 C-3.98 29 -5.96 29 -8 29 C-8.66 27.68 -9.32 26.36 -10 25 C-10.35 26.13 -10.7 27.27 -11.06 28.44 C-11.88 30.38 -11.88 30.38 -13 32 C-16.5 32.94 -19.41 33 -23 33 C-23 31.68 -23 30.36 -23 29 C-19.56 26.71 -18.01 26.82 -14 27 C-14 26.34 -14 25.68 -14 25 C-13.34 25 -12.68 25 -12 25 C-12 23.02 -12 21.04 -12 19 C-12.66 19 -13.32 19 -14 19 C-14 18.34 -14 17.68 -14 17 C-15.32 17 -16.64 17 -18 17 C-17.67 16.01 -17.34 15.02 -17 14 C-16.01 14 -15.02 14 -14 14 C-13.01 11.69 -12.02 9.38 -11 7 C-9.33 7.25 -9.33 7.25 -7.62 7.5 C-4.28 8.05 -4.28 8.05 -2 8 C-2 6.68 -2 5.36 -2 4 C-1.34 4 -0.68 4 0 4 C0 2.68 0 1.36 0 0 Z M-8 21 C-8.33 21.99 -8.66 22.98 -9 24 C-8.34 24 -7.68 24 -7 24 C-7.33 23.01 -7.66 22.02 -8 21 Z " fill="#92424F" transform="translate(52,27)"/>
<path d="M0 0 C0.33 0.66 0.66 1.32 1 2 C1.66 2 2.32 2 3 2 C3 2.66 3 3.32 3 4 C3.66 4 4.32 4 5 4 C5 4.66 5 5.32 5 6 C4.34 6 3.68 6 3 6 C3 7.65 3 9.3 3 11 C3.66 11.33 4.32 11.66 5 12 C7 14 7 14 7 17 C7.04 17.82 7.08 18.65 7.12 19.5 C7 22 7 22 5 25 C4.34 25 3.68 25 3 25 C3 23.68 3 22.36 3 21 C3.66 21 4.32 21 5 21 C5 20.34 5 19.68 5 19 C2.03 19 -0.94 19 -4 19 C-4 18.34 -4 17.68 -4 17 C-5.98 17 -7.96 17 -10 17 C-10 15.02 -10 13.04 -10 11 C-9.34 11 -8.68 11 -8 11 C-8 10.01 -8 9.02 -8 8 C-9.65 8 -11.3 8 -13 8 C-10 6 -10 6 -8 6 C-8 5.34 -8 4.68 -8 4 C-7.4 4.33 -6.8 4.66 -6.19 5 C-3.95 6.21 -3.95 6.21 -1 6 C-1.21 5.38 -1.41 4.76 -1.62 4.12 C-1.75 3.42 -1.87 2.72 -2 2 C-1.34 1.34 -0.68 0.68 0 0 Z " fill="#F8EDEE" transform="translate(62,4)"/>
<path d="M0 0 C1.32 0 2.64 0 4 0 C4 1.32 4 2.64 4 4 C5.65 4 7.3 4 9 4 C9 3.34 9 2.68 9 2 C9.66 2 10.32 2 11 2 C11 1.34 11 0.68 11 0 C11.66 0 12.32 0 13 0 C13.33 2.97 13.66 5.94 14 9 C13.01 9 12.02 9 11 9 C8.22 10.39 8.02 12.16 7 15 C4.03 14.5 4.03 14.5 1 14 C1 13.34 1 12.68 1 12 C-2 10.67 -2 10.67 -5 12 C-5.99 11.67 -6.98 11.34 -8 11 C-8 10.01 -8 9.02 -8 8 C-7.34 8 -6.68 8 -6 8 C-6 7.34 -6 6.68 -6 6 C-5.34 6 -4.68 6 -4 6 C-4 5.34 -4 4.68 -4 4 C-3.34 4 -2.68 4 -2 4 C-2 3.34 -2 2.68 -2 2 C-1.34 2 -0.68 2 0 2 C0 1.34 0 0.68 0 0 Z " fill="#8F414C" transform="translate(31,27)"/>
<path d="M0 0 C1.98 0 3.96 0 6 0 C6 1.32 6 2.64 6 4 C6.66 4 7.32 4 8 4 C8 4.66 8 5.32 8 6 C9.32 6 10.64 6 12 6 C12 6.66 12 7.32 12 8 C12.66 8 13.32 8 14 8 C14 9.32 14 10.64 14 12 C13.34 12 12.68 12 12 12 C12 13.32 12 14.64 12 16 C8.25 17.12 8.25 17.12 6 16 C6 13.36 6 10.72 6 8 C5.34 8 4.68 8 4 8 C4 8.66 4 9.32 4 10 C3.34 10 2.68 10 2 10 C2 10.66 2 11.32 2 12 C0.35 12 -1.3 12 -3 12 C-3 10.02 -3 8.04 -3 6 C-3.66 6 -4.32 6 -5 6 C-5 5.34 -5 4.68 -5 4 C-5.66 4 -6.32 4 -7 4 C-7 3.34 -7 2.68 -7 2 C-4.69 2 -2.38 2 0 2 C0 1.34 0 0.68 0 0 Z " fill="#9B5C65" transform="translate(38,19)"/>
<path d="M0 0 C1.32 0.66 2.64 1.32 4 2 C3.01 2.49 3.01 2.49 2 3 C3.32 3.33 4.64 3.66 6 4 C5.01 5.48 5.01 5.48 4 7 C3.34 7 2.68 7 2 7 C2 7.66 2 8.32 2 9 C2.66 9 3.32 9 4 9 C4 9.66 4 10.32 4 11 C4.66 11 5.32 11 6 11 C6 10.34 6 9.68 6 9 C6.66 9 7.32 9 8 9 C7.34 10.98 6.68 12.96 6 15 C7.32 16.32 8.64 17.64 10 19 C9.34 19.66 8.68 20.32 8 21 C8 20.34 8 19.68 8 19 C7.34 19 6.68 19 6 19 C6 18.34 6 17.68 6 17 C5.34 17 4.68 17 4 17 C4 16.34 4 15.68 4 15 C3.34 15 2.68 15 2 15 C2 14.34 2 13.68 2 13 C1.01 13.99 0.02 14.98 -1 16 C-0.5 16.45 -0.01 16.91 0.5 17.38 C2 19 2 19 2 21 C2.66 21 3.32 21 4 21 C4 21.66 4 22.32 4 23 C3.34 23 2.68 23 2 23 C2 23.66 2 24.32 2 25 C1.34 25 0.68 25 0 25 C0 24.34 0 23.68 0 23 C-0.66 23 -1.32 23 -2 23 C-2 21.68 -2 20.36 -2 19 C-2.93 16.8 -2.93 16.8 -4 15 C-4.66 15 -5.32 15 -6 15 C-6 13.68 -6 12.36 -6 11 C-5.34 11 -4.68 11 -4 11 C-4 10.34 -4 9.68 -4 9 C-3.34 9 -2.68 9 -2 9 C-2 7.68 -2 6.36 -2 5 C-1.34 5 -0.68 5 0 5 C0 3.35 0 1.7 0 0 Z " fill="#EFECED" transform="translate(71,58)"/>
<path d="M0 0 C0.66 0 1.32 0 2 0 C2 5.28 2 10.56 2 16 C1.34 16 0.68 16 0 16 C0 17.32 0 18.64 0 20 C-0.66 20 -1.32 20 -2 20 C-2 21.65 -2 23.3 -2 25 C-2.66 25 -3.32 25 -4 25 C-4 26.32 -4 27.64 -4 29 C-4.66 29 -5.32 29 -6 29 C-6 29.66 -6 30.32 -6 31 C-6.66 31 -7.32 31 -8 31 C-7.81 30.24 -7.63 29.47 -7.44 28.69 C-6.77 25.91 -6.77 25.91 -8 23 C-8.04 21 -8.04 19 -8 17 C-6.02 17.33 -4.04 17.66 -2 18 C-2 14.7 -2 11.4 -2 8 C-1.67 8 -1.34 8 -1 8 C-0.67 5.36 -0.34 2.72 0 0 Z " fill="#672E3A" transform="translate(73,38)"/>
<path d="M0 0 C0 0.99 0 1.98 0 3 C-0.66 3 -1.32 3 -2 3 C-2 4.98 -2 6.96 -2 9 C-0.02 9 1.96 9 4 9 C4 9.66 4 10.32 4 11 C4.66 11 5.32 11 6 11 C6 11.66 6 12.32 6 13 C4.68 13 3.36 13 2 13 C2 12.34 2 11.68 2 11 C0.68 11 -0.64 11 -2 11 C-2 12.32 -2 13.64 -2 15 C-2.66 15 -3.32 15 -4 15 C-4 14.34 -4 13.68 -4 13 C-5.32 13 -6.64 13 -8 13 C-8 12.34 -8 11.68 -8 11 C-8.66 11 -9.32 11 -10 11 C-10 10.34 -10 9.68 -10 9 C-9.34 9 -8.68 9 -8 9 C-8 7.02 -8 5.04 -8 3 C-7.34 3 -6.68 3 -6 3 C-6 2.34 -6 1.68 -6 1 C-4 0 -4 0 0 0 Z " fill="#784049" transform="translate(54,12)"/>
<path d="M0 0 C1.32 0.66 2.64 1.32 4 2 C4 2.99 4 3.98 4 5 C4.66 4.67 5.32 4.34 6 4 C6 4.66 6 5.32 6 6 C6.66 6 7.32 6 8 6 C8.33 5.34 8.66 4.68 9 4 C9 4.66 9 5.32 9 6 C9.66 6 10.32 6 11 6 C11 6.66 11 7.32 11 8 C11.66 8 12.32 8 13 8 C13 8.66 13 9.32 13 10 C11.02 10.99 11.02 10.99 9 12 C8.67 11.01 8.34 10.02 8 9 C7.34 8.67 6.68 8.34 6 8 C6.66 9.32 7.32 10.64 8 12 C7.01 13.48 7.01 13.48 6 15 C5.34 15 4.68 15 4 15 C4 14.01 4 13.02 4 12 C3.34 12 2.68 12 2 12 C2 11.34 2 10.68 2 10 C1.34 10 0.68 10 0 10 C0 9.34 0 8.68 0 8 C-0.66 8 -1.32 8 -2 8 C-2 7.34 -2 6.68 -2 6 C-1.34 6 -0.68 6 0 6 C0 4.02 0 2.04 0 0 Z " fill="#EFECEB" transform="translate(75,48)"/>
<path d="M0 0 C1.65 0 3.3 0 5 0 C5 0.66 5 1.32 5 2 C5.66 2 6.32 2 7 2 C7 3.98 7 5.96 7 8 C6.34 8 5.68 8 5 8 C5 8.66 5 9.32 5 10 C3.35 10 1.7 10 0 10 C0 9.34 0 8.68 0 8 C-0.66 8 -1.32 8 -2 8 C-2 6.02 -2 4.04 -2 2 C-1.34 2 -0.68 2 0 2 C0 1.34 0 0.68 0 0 Z " fill="#5F182C" transform="translate(58,44)"/>
<path d="M0 0 C0.66 0 1.32 0 2 0 C2 1.32 2 2.64 2 4 C2.66 4 3.32 4 4 4 C4 5.32 4 6.64 4 8 C4.66 8 5.32 8 6 8 C6 9.65 6 11.3 6 13 C5.34 12.67 4.68 12.34 4 12 C3.34 12 2.68 12 2 12 C1.01 13.48 1.01 13.48 0 15 C-0.66 15 -1.32 15 -2 15 C-2 14.34 -2 13.68 -2 13 C-2.66 13 -3.32 13 -4 13 C-4 11.35 -4 9.7 -4 8 C-2.35 7.67 -0.7 7.34 1 7 C0.26 6.32 0.26 6.32 -0.5 5.62 C-2 4 -2 4 -2 2 C-1.34 2 -0.68 2 0 2 C0 1.34 0 0.68 0 0 Z " fill="#F0EAEB" transform="translate(19,50)"/>
<path d="M0 0 C0.66 0 1.32 0 2 0 C2 0.66 2 1.32 2 2 C2.66 2 3.32 2 4 2 C4 1.34 4 0.68 4 0 C4.66 0 5.32 0 6 0 C6 0.66 6 1.32 6 2 C6.66 2 7.32 2 8 2 C8 2.66 8 3.32 8 4 C8.66 4 9.32 4 10 4 C11.12 9.75 11.12 9.75 10 12 C9.34 12 8.68 12 8 12 C8 11.34 8 10.68 8 10 C7.34 10 6.68 10 6 10 C6 9.01 6 8.02 6 7 C5.34 7 4.68 7 4 7 C3.67 6.34 3.34 5.68 3 5 C1.52 5.99 1.52 5.99 0 7 C-0.66 5.35 -1.32 3.7 -2 2 C-1.34 2 -0.68 2 0 2 C0 1.34 0 0.68 0 0 Z " fill="#EEE8EA" transform="translate(25,71)"/>
<path d="M0 0 C1.65 0 3.3 0 5 0 C5 0.66 5 1.32 5 2 C5.66 2 6.32 2 7 2 C7 3.98 7 5.96 7 8 C6.34 8 5.68 8 5 8 C5 8.66 5 9.32 5 10 C3.35 10 1.7 10 0 10 C0 9.34 0 8.68 0 8 C-0.66 8 -1.32 8 -2 8 C-2 6.35 -2 4.7 -2 3 C-0.68 3.33 0.64 3.66 2 4 C2 3.34 2 2.68 2 2 C1.34 2 0.68 2 0 2 C0 1.34 0 0.68 0 0 Z " fill="#5F172A" transform="translate(33,44)"/>
<path d="M0 0 C1.32 0 2.64 0 4 0 C4 0.66 4 1.32 4 2 C4.66 2 5.32 2 6 2 C6 3.32 6 4.64 6 6 C5.34 6 4.68 6 4 6 C4 7.32 4 8.64 4 10 C0.25 11.12 0.25 11.12 -2 10 C-2 7.36 -2 4.72 -2 2 C-1.34 2 -0.68 2 0 2 C0 1.34 0 0.68 0 0 Z " fill="#B46E79" transform="translate(46,25)"/>
<path d="M0 0 C0.33 0.66 0.66 1.32 1 2 C1.66 2 2.32 2 3 2 C3 2.66 3 3.32 3 4 C3.66 4 4.32 4 5 4 C5 4.66 5 5.32 5 6 C4.34 6 3.68 6 3 6 C3 7.65 3 9.3 3 11 C2.34 11 1.68 11 1 11 C0.67 12.32 0.34 13.64 0 15 C-1.98 15 -3.96 15 -6 15 C-6 13.68 -6 12.36 -6 11 C-5.34 11 -4.68 11 -4 11 C-4 11.66 -4 12.32 -4 13 C-3.34 13 -2.68 13 -2 13 C-2 11.68 -2 10.36 -2 9 C-2.66 8.67 -3.32 8.34 -4 8 C-2.68 7.67 -1.36 7.34 0 7 C-0.66 5.35 -1.32 3.7 -2 2 C-1.34 1.34 -0.68 0.68 0 0 Z " fill="#F2EEEF" transform="translate(62,4)"/>
<path d="M0 0 C1.67 -0.04 3.33 -0.04 5 0 C6 1 6 1 6.06 3.56 C6.04 4.37 6.02 5.17 6 6 C6.66 6 7.32 6 8 6 C8.33 6.99 8.66 7.98 9 9 C8.01 9.5 8.01 9.5 7 10 C7.33 10.33 7.66 10.66 8 11 C8 12.32 8 13.64 8 15 C7.34 15 6.68 15 6 15 C6 14.34 6 13.68 6 13 C5.34 13 4.68 13 4 13 C4 11.68 4 10.36 4 9 C3.34 9 2.68 9 2 9 C2 7.35 2 5.7 2 4 C1.34 4 0.68 4 0 4 C0 2.68 0 1.36 0 0 Z " fill="#713140" transform="translate(23,54)"/>
<path d="M0 0 C0.99 0 1.98 0 3 0 C2.21 3.97 1 7.47 -1 11 C-4.5 11.94 -7.41 12 -11 12 C-11 10.68 -11 9.36 -11 8 C-7.56 5.71 -6.01 5.82 -2 6 C-2 5.34 -2 4.68 -2 4 C-1.34 4 -0.68 4 0 4 C0 2.68 0 1.36 0 0 Z " fill="#924656" transform="translate(40,48)"/>
<path d="M0 0 C1.98 0.66 3.96 1.32 6 2 C6.33 1.34 6.66 0.68 7 0 C7.33 1.32 7.66 2.64 8 4 C5.03 3.51 5.03 3.51 2 3 C2 4.65 2 6.3 2 8 C-0.31 8 -2.62 8 -5 8 C-5 6.35 -5 4.7 -5 3 C-3.35 2.67 -1.7 2.34 0 2 C0 1.34 0 0.68 0 0 Z " fill="#8D4252" transform="translate(63,52)"/>
<path d="M0 0 C0.66 0 1.32 0 2 0 C2 0.66 2 1.32 2 2 C2.66 2 3.32 2 4 2 C4 6.29 4 10.58 4 15 C3.34 15 2.68 15 2 15 C2 14.34 2 13.68 2 13 C1.34 13 0.68 13 0 13 C0 12.34 0 11.68 0 11 C-0.66 11 -1.32 11 -2 11 C-2 10.34 -2 9.68 -2 9 C-1.01 8.34 -0.02 7.68 1 7 C0.67 6.01 0.34 5.02 0 4 C-0.66 4 -1.32 4 -2 4 C-2 3.34 -2 2.68 -2 2 C-1.34 2 -0.68 2 0 2 C0 1.34 0 0.68 0 0 Z " fill="#EFEFEF" transform="translate(92,54)"/>
<path d="M0 0 C0.33 0.66 0.66 1.32 1 2 C1.66 2 2.32 2 3 2 C3 2.66 3 3.32 3 4 C1.68 3.67 0.36 3.34 -1 3 C-1 4.65 -1 6.3 -1 8 C-0.34 8 0.32 8 1 8 C1 9.32 1 10.64 1 12 C0.22 11.81 -0.57 11.63 -1.38 11.44 C-3.97 10.74 -3.97 10.74 -6 12 C-6.07 8.66 -6.07 6.2 -5 3 C-2.44 1.31 -2.44 1.31 0 0 Z " fill="#8E3F4E" transform="translate(32,44)"/>
<path d="M0 0 C2.64 0 5.28 0 8 0 C8 0.66 8 1.32 8 2 C6.68 2 5.36 2 4 2 C4 2.66 4 3.32 4 4 C3.34 4 2.68 4 2 4 C2 4.66 2 5.32 2 6 C-1.96 6 -5.92 6 -10 6 C-10 5.34 -10 4.68 -10 4 C-9.04 3.82 -9.04 3.82 -8.07 3.63 C-7.24 3.47 -6.41 3.3 -5.56 3.12 C-4.74 2.96 -3.92 2.8 -3.07 2.63 C-2.38 2.42 -1.7 2.22 -1 2 C-0.67 1.34 -0.34 0.68 0 0 Z " fill="#602636" transform="translate(52,77)"/>
<path d="M0 0 C1.98 0 3.96 0 6 0 C6 0.66 6 1.32 6 2 C5.34 2 4.68 2 4 2 C4 3.32 4 4.64 4 6 C5.32 6 6.64 6 8 6 C8 6.66 8 7.32 8 8 C8.66 8 9.32 8 10 8 C10 9.32 10 10.64 10 12 C8 12 8 12 6.38 10.5 C5.92 10.01 5.47 9.51 5 9 C4.67 9.99 4.34 10.98 4 12 C0.92 6.58 0.92 6.58 1.31 3.62 C1.54 3.09 1.77 2.55 2 2 C1.34 2 0.68 2 0 2 C0 1.34 0 0.68 0 0 Z " fill="#6E323F" transform="translate(61,23)"/>
<path d="M0 0 C1.32 0 2.64 0 4 0 C4 0.66 4 1.32 4 2 C5.32 2.33 6.64 2.66 8 3 C8.33 4.65 8.66 6.3 9 8 C7.35 8 5.7 8 4 8 C4 7.34 4 6.68 4 6 C3.34 6 2.68 6 2 6 C2 5.34 2 4.68 2 4 C1.34 4 0.68 4 0 4 C0 2.68 0 1.36 0 0 Z " fill="#B86F7D" transform="translate(52,23)"/>
<path d="M0 0 C0.66 0 1.32 0 2 0 C2 0.66 2 1.32 2 2 C2.66 2 3.32 2 4 2 C4 2.66 4 3.32 4 4 C5.32 4.66 6.64 5.32 8 6 C7.67 6.66 7.34 7.32 7 8 C5.35 8 3.7 8 2 8 C2 7.34 2 6.68 2 6 C0.35 6 -1.3 6 -3 6 C-3 5.34 -3 4.68 -3 4 C-2.34 4 -1.68 4 -1 4 C-0.67 2.68 -0.34 1.36 0 0 Z " fill="#F6F6F6" transform="translate(13,50)"/>
<path d="M0 0 C0.66 0 1.32 0 2 0 C2.66 1.32 3.32 2.64 4 4 C2.68 3.67 1.36 3.34 0 3 C0 3.99 0 4.98 0 6 C0.66 6 1.32 6 2 6 C2 6.66 2 7.32 2 8 C1.34 8 0.68 8 0 8 C0 8.66 0 9.32 0 10 C-0.66 10 -1.32 10 -2 10 C-2 9.34 -2 8.68 -2 8 C-2.66 8 -3.32 8 -4 8 C-4.33 6.02 -4.66 4.04 -5 2 C-4.67 2.66 -4.34 3.32 -4 4 C-3.34 4 -2.68 4 -2 4 C-2 3.34 -2 2.68 -2 2 C-1.34 2 -0.68 2 0 2 C0 1.34 0 0.68 0 0 Z " fill="#E9ECEB" transform="translate(40,84)"/>
<path d="M0 0 C0.33 0.99 0.66 1.98 1 3 C1.66 3 2.32 3 3 3 C3 2.01 3 1.02 3 0 C3.99 0 4.98 0 6 0 C6 0.66 6 1.32 6 2 C5.34 2 4.68 2 4 2 C4 2.66 4 3.32 4 4 C4.66 4.33 5.32 4.66 6 5 C5 6 5 6 3.15 6.1 C1.1 6.07 -0.95 6.03 -3 6 C-2.43 3.13 -2.14 2.14 0 0 Z " fill="#F7F7F7" transform="translate(80,90)"/>
<path d="M0 0 C1.48 0.99 1.48 0.99 3 2 C4.32 1.34 5.64 0.68 7 0 C6.67 0.99 6.34 1.98 6 3 C6.66 3 7.32 3 8 3 C8 3.99 8 4.98 8 6 C7.34 6 6.68 6 6 6 C6 6.66 6 7.32 6 8 C5.34 8 4.68 8 4 8 C4 7.34 4 6.68 4 6 C3.34 6 2.68 6 2 6 C2 5.34 2 4.68 2 4 C1.34 4 0.68 4 0 4 C0 2.68 0 1.36 0 0 Z " fill="#F9F9F9" transform="translate(23,75)"/>
<path d="M0 0 C2.49 1.2 4.68 2.45 7 4 C6.67 5.65 6.34 7.3 6 9 C5.34 9 4.68 9 4 9 C4 8.34 4 7.68 4 7 C3.34 7 2.68 7 2 7 C1.34 6.01 0.68 5.02 0 4 C-2.58 3.75 -2.58 3.75 -5 4 C-2 2 -2 2 0 2 C0 1.34 0 0.68 0 0 Z " fill="#EFE1E2" transform="translate(54,8)"/>
<path d="M0 0 C1.32 0 2.64 0 4 0 C4 1.65 4 3.3 4 5 C1.36 5.33 -1.28 5.66 -4 6 C-4 5.34 -4 4.68 -4 4 C-3.34 4 -2.68 4 -2 4 C-2 3.34 -2 2.68 -2 2 C-1.34 2 -0.68 2 0 2 C0 1.34 0 0.68 0 0 Z " fill="#6B303E" transform="translate(31,27)"/>
<path d="M0 0 C0 0.99 0 1.98 0 3 C-1.32 3 -2.64 3 -4 3 C-4 5.64 -4 8.28 -4 11 C-4.66 11 -5.32 11 -6 11 C-6 7.7 -6 4.4 -6 1 C-4 0 -4 0 0 0 Z " fill="#9A606D" transform="translate(54,12)"/>
<path d="M0 0 C0.66 0 1.32 0 2 0 C2 0.99 2 1.98 2 3 C2.66 3 3.32 3 4 3 C4 3.66 4 4.32 4 5 C0.7 5 -2.6 5 -6 5 C-6 4.34 -6 3.68 -6 3 C-5.34 3 -4.68 3 -4 3 C-4 2.34 -4 1.68 -4 1 C-3.34 1 -2.68 1 -2 1 C-2 1.66 -2 2.32 -2 3 C-1.34 3 -0.68 3 0 3 C0 2.01 0 1.02 0 0 Z " fill="#EDF0EF" transform="translate(50,91)"/>
<path d="M0 0 C0.66 0.33 1.32 0.66 2 1 C1 4 1 4 0 6 C0.66 6 1.32 6 2 6 C3.62 8 3.62 8 5 10 C4.67 10.66 4.34 11.32 4 12 C1.69 10.02 -0.62 8.04 -3 6 C-2 4 -1 2 0 0 Z " fill="#FAFBFB" transform="translate(79,67)"/>
<path d="M0 0 C1.32 0.66 2.64 1.32 4 2 C4 2.66 4 3.32 4 4 C3.34 4 2.68 4 2 4 C2 4.66 2 5.32 2 6 C0.35 6 -1.3 6 -3 6 C-3 4.68 -3 3.36 -3 2 C-2.01 2 -1.02 2 0 2 C0 1.34 0 0.68 0 0 Z " fill="#BC6E7E" transform="translate(38,25)"/>
<path d="M0 0 C2.31 0 4.62 0 7 0 C7 1.32 7 2.64 7 4 C4.69 4 2.38 4 0 4 C0 2.68 0 1.36 0 0 Z " fill="#BC6F7D" transform="translate(58,56)"/>
<path d="M0 0 C2.31 0 4.62 0 7 0 C7 1.32 7 2.64 7 4 C4.69 4 2.38 4 0 4 C0 2.68 0 1.36 0 0 Z " fill="#BD717F" transform="translate(29,56)"/>
<path d="M0 0 C1.65 0 3.3 0 5 0 C4.67 2.97 4.34 5.94 4 9 C3.34 9 2.68 9 2 9 C2 7.35 2 5.7 2 4 C1.34 4 0.68 4 0 4 C0 2.68 0 1.36 0 0 Z " fill="#622A36" transform="translate(23,54)"/>
<path d="M0 0 C0.66 0 1.32 0 2 0 C2 1.32 2 2.64 2 4 C1.34 4 0.68 4 0 4 C0 4.66 0 5.32 0 6 C0.66 6 1.32 6 2 6 C2 6.66 2 7.32 2 8 C1.34 8 0.68 8 0 8 C-0.33 8.66 -0.66 9.32 -1 10 C-2.19 8.38 -2.19 8.38 -3 6 C-1.62 2.75 -1.62 2.75 0 0 Z " fill="#FAFAFA" transform="translate(13,86)"/>
<path d="M0 0 C2.31 0.33 4.62 0.66 7 1 C7 1.66 7 2.32 7 3 C6.34 3 5.68 3 5 3 C4.73 3.62 4.46 4.24 4.19 4.88 C3 7 3 7 0 9 C0.33 8.05 0.66 7.1 1 6.12 C2.1 3.23 2.1 3.23 2 1 C1.34 0.67 0.68 0.34 0 0 Z " fill="#F9F7F7" transform="translate(33,12)"/>
<path d="M0 0 C1.65 0 3.3 0 5 0 C5 0.66 5 1.32 5 2 C5.66 2.33 6.32 2.66 7 3 C4.63 4.06 4.63 4.06 2 5 C1.34 4.67 0.68 4.34 0 4 C0 2.68 0 1.36 0 0 Z " fill="#671E34" transform="translate(58,44)"/>
<path d="M0 0 C1.98 0 3.96 0 6 0 C6 0.66 6 1.32 6 2 C5.34 2 4.68 2 4 2 C4 3.32 4 4.64 4 6 C3.01 6 2.02 6 1 6 C1.33 4.68 1.66 3.36 2 2 C1.34 2 0.68 2 0 2 C0 1.34 0 0.68 0 0 Z " fill="#683A44" transform="translate(61,23)"/>
<path d="M0 0 C0.66 0 1.32 0 2 0 C2 0.66 2 1.32 2 2 C2.66 2 3.32 2 4 2 C4 2.66 4 3.32 4 4 C3.34 4 2.68 4 2 4 C2 4.66 2 5.32 2 6 C1.34 6 0.68 6 0 6 C0 5.34 0 4.68 0 4 C-0.66 4 -1.32 4 -2 4 C-1.34 2.68 -0.68 1.36 0 0 Z " fill="#ECECEC" transform="translate(2,88)"/>
<path d="M0 0 C0.99 0 1.98 0 3 0 C3 2.31 3 4.62 3 7 C1.35 7 -0.3 7 -2 7 C-2 5.68 -2 4.36 -2 3 C-1.34 3 -0.68 3 0 3 C0 3.66 0 4.32 0 5 C0.66 5 1.32 5 2 5 C2 3.68 2 2.36 2 1 C1.34 0.67 0.68 0.34 0 0 Z " fill="#6B474E" transform="translate(58,12)"/>
<path d="M0 0 C0.66 0 1.32 0 2 0 C2.33 1.98 2.66 3.96 3 6 C2.34 6 1.68 6 1 6 C0.67 6.66 0.34 7.32 0 8 C0 7.34 0 6.68 0 6 C-0.66 6 -1.32 6 -2 6 C-2 5.34 -2 4.68 -2 4 C-1.34 4 -0.68 4 0 4 C0 2.68 0 1.36 0 0 Z " fill="#F9F9FA" transform="translate(33,86)"/>
<path d="M0 0 C3 1 3 1 4 3 C4.99 2.67 5.98 2.34 7 2 C7 2.66 7 3.32 7 4 C3.53 5.48 3.53 5.48 0 7 C0.28 6.1 0.28 6.1 0.56 5.19 C1.22 2.84 1.22 2.84 0 0 Z " fill="#FAFAFA" transform="translate(81,56)"/>
<path d="M0 0 C0.66 0 1.32 0 2 0 C2.33 1.98 2.66 3.96 3 6 C1.35 5.67 -0.3 5.34 -2 5 C-2 4.01 -2 3.02 -2 2 C-1.34 2 -0.68 2 0 2 C0 1.34 0 0.68 0 0 Z " fill="#6C323C" transform="translate(25,33)"/>
<path d="M0 0 C3.24 0.56 4.93 1.41 7 4 C7 4.66 7 5.32 7 6 C5.68 6 4.36 6 3 6 C2.67 4.68 2.34 3.36 2 2 C1.34 2 0.68 2 0 2 C0 1.34 0 0.68 0 0 Z " fill="#5B2A36" transform="translate(33,73)"/>
<path d="M0 0 C0.66 0 1.32 0 2 0 C2 1.32 2 2.64 2 4 C2.66 4 3.32 4 4 4 C4 4.66 4 5.32 4 6 C4.66 6 5.32 6 6 6 C6 6.66 6 7.32 6 8 C2.63 6.61 1.01 5.02 -1 2 C-0.67 1.34 -0.34 0.68 0 0 Z " fill="#FBEDF4" transform="translate(25,63)"/>
<path d="M0 0 C0.66 0 1.32 0 2 0 C2 0.66 2 1.32 2 2 C2.66 2.33 3.32 2.66 4 3 C3.01 4.48 3.01 4.48 2 6 C1.34 6 0.68 6 0 6 C0 5.34 0 4.68 0 4 C-0.66 4 -1.32 4 -2 4 C-2 3.34 -2 2.68 -2 2 C-1.34 2 -0.68 2 0 2 C0 1.34 0 0.68 0 0 Z " fill="#EBEBEC" transform="translate(79,44)"/>
<path d="M0 0 C0.66 0 1.32 0 2 0 C2 0.66 2 1.32 2 2 C2.66 2.33 3.32 2.66 4 3 C2.33 4.67 0.67 6.33 -1 8 C-1.33 6.68 -1.66 5.36 -2 4 C-1.34 4 -0.68 4 0 4 C0 2.68 0 1.36 0 0 Z " fill="#853946" transform="translate(52,27)"/>
<path d="M0 0 C2.31 0 4.62 0 7 0 C7 0.66 7 1.32 7 2 C6.01 2 5.02 2 4 2 C4 2.66 4 3.32 4 4 C3.34 4 2.68 4 2 4 C2 3.34 2 2.68 2 2 C1.34 2 0.68 2 0 2 C0 1.34 0 0.68 0 0 Z " fill="#6F484D" transform="translate(31,21)"/>
<path d="M0 0 C0.66 0 1.32 0 2 0 C2 1.65 2 3.3 2 5 C1.34 5 0.68 5 0 5 C-0.66 6.32 -1.32 7.64 -2 9 C-2.12 5.62 -2.12 5.62 -2 2 C-1.34 1.34 -0.68 0.68 0 0 Z " fill="#DCCECF" transform="translate(63,10)"/>
<path d="M0 0 C0.66 0 1.32 0 2 0 C2.33 1.32 2.66 2.64 3 4 C1.52 4.99 1.52 4.99 0 6 C0 5.34 0 4.68 0 4 C-0.66 4 -1.32 4 -2 4 C-2 3.34 -2 2.68 -2 2 C-1.34 2 -0.68 2 0 2 C0 1.34 0 0.68 0 0 Z " fill="#E7E9E8" transform="translate(33,13)"/>
</svg>
